<svg width="203" height="100" viewBox="0 0 203 100" fill="none" xmlns="http://www.w3.org/2000/svg">
<rect width="100" height="100" rx="50" fill="#05050F"/>
<path d="M29.055 55.08C29.495 55.08 29.695 55.4 29.695 55.64C29.695 58.6 29.655 59.92 29.255 60.88C28.815 62 27.735 62.52 27.095 62.52C27.095 65.36 29.095 66 30.015 66C30.935 66 31.775 65.64 32.535 65.12C33.215 65.64 34.055 66 34.975 66C35.895 66 37.935 65.36 37.935 62.52C35.535 62.16 35.295 58.08 35.295 56.52V50.52C35.295 47.2 36.095 43.96 37.895 41.04C37.415 40.8 36.975 40.72 36.455 40.72C36.055 40.72 35.695 40.8 35.375 40.88C35.015 40.96 34.775 40.96 34.415 40.96C33.975 40.96 33.615 40.64 33.335 40.4C33.015 40.16 32.775 39.88 32.535 39.88C32.255 39.88 32.015 40.2 31.735 40.44C31.455 40.68 30.975 40.96 30.615 40.96C30.295 40.96 30.015 40.96 29.695 40.88C29.375 40.8 28.975 40.72 28.575 40.72C28.055 40.72 27.615 40.8 27.135 41.04C28.215 43.48 29.695 47.52 29.695 50.44C29.695 50.88 29.495 51.08 29.055 51.08H23.015C22.575 51.08 22.335 50.88 22.335 50.44C22.335 47.52 23.815 43.48 24.895 41.04C24.415 40.8 23.975 40.72 23.495 40.72C23.055 40.72 22.695 40.8 22.375 40.88C22.015 40.96 21.775 40.96 21.415 40.96C21.055 40.96 20.495 40.52 20.215 40.28C20.015 40.12 19.775 39.88 19.535 39.88C19.295 39.88 19.015 40.12 18.775 40.36C18.455 40.64 18.095 40.96 17.815 40.96C17.495 40.96 17.175 40.96 16.695 40.88C16.375 40.8 15.975 40.72 15.575 40.72C15.095 40.72 14.655 40.8 14.175 41.04C15.975 43.96 16.735 47.2 16.735 50.52V56.52C16.735 58.08 16.535 62.16 14.135 62.52C14.135 65.36 16.135 66 17.055 66C17.975 66 18.855 65.64 19.535 65.12C20.255 65.64 21.095 66 22.015 66C22.935 66 24.975 65.36 24.975 62.52C24.295 62.52 23.215 62 22.775 60.88C22.415 59.92 22.335 58.6 22.335 55.64C22.335 55.4 22.575 55.08 23.015 55.08H29.055ZM60.9691 50.52C60.9691 47.2 61.6491 43.96 63.5691 41.04C63.2891 40.8 62.9291 40.72 62.5691 40.72C62.2091 40.72 61.8891 40.8 61.5691 40.88C61.2491 40.96 60.8091 40.96 60.4091 40.96C60.0491 40.96 59.7291 40.72 59.4891 40.48C59.2891 40.28 59.0091 39.88 58.7291 39.88C58.4091 39.88 58.1291 40.28 57.9691 40.48C57.6891 40.72 57.3691 40.96 57.0091 40.96C56.6091 40.96 56.1691 40.96 55.8491 40.88C55.5291 40.8 55.1291 40.72 54.7691 40.72C54.3691 40.72 53.9691 40.8 53.6091 41.04C55.8091 43.96 56.1291 47.2 56.1291 50.52V54.68C56.1291 59.36 55.4091 62.6 52.6891 62.6C49.6491 62.6 49.0091 59.36 49.0091 54.68V50.52C49.0091 47.2 49.6091 43.96 51.3291 41.04C50.8491 40.8 50.4091 40.72 50.0091 40.72C49.6091 40.72 49.2091 40.8 48.8891 40.88C48.5291 40.96 48.2891 40.96 47.9291 40.96C47.5291 40.96 47.0091 40.72 46.7691 40.48C46.5691 40.28 46.2891 39.88 46.0091 39.88C45.7291 39.88 45.4491 40.28 45.2491 40.48C45.0091 40.72 44.4891 40.96 44.0891 40.96C43.7291 40.96 43.4891 40.96 43.1291 40.88C42.8091 40.8 42.4491 40.72 42.0091 40.72C41.5291 40.72 41.0891 40.8 40.6491 41.04C42.4491 43.96 43.2091 47.2 43.2091 50.52V56.52C43.2091 63.8 46.5291 66.36 52.4891 66.36C57.6891 66.36 60.9691 63.8 60.9691 56.52V50.52ZM69.275 56.52C69.275 58.08 69.035 62.16 66.635 62.52C66.635 65.36 68.675 66 69.595 66C70.515 66 71.355 65.64 72.035 65.12C73.395 66 75.435 66.36 78.075 66.36C84.035 66.36 86.515 63.24 86.515 58.84C86.515 56.44 85.355 53.88 83.035 52.4C84.395 51.48 85.715 49.72 85.715 47.12C85.715 43.28 83.115 40.72 77.635 40.72C76.955 40.72 76.195 40.8 75.355 40.88C74.755 40.96 74.395 40.96 73.995 40.96C73.635 40.96 73.235 40.8 72.875 40.44C72.635 40.2 72.355 39.88 72.075 39.88C71.795 39.88 71.595 40.2 71.315 40.48C71.035 40.68 70.675 40.96 70.355 40.96C69.955 40.96 69.555 40.96 69.195 40.88C68.875 40.8 68.515 40.72 68.115 40.72C67.595 40.72 67.155 40.8 66.675 41.04C68.475 43.96 69.275 47.2 69.275 50.52V56.52ZM74.875 49.32C74.875 46.08 74.875 44.48 77.435 44.48C79.115 44.48 80.475 45.52 80.475 47.44C80.475 49.88 78.755 51.48 76.035 51.48H75.315C75.035 51.48 74.875 51.28 74.875 51V49.32ZM76.555 55.2C78.515 55.2 80.795 55.88 80.795 58.68C80.795 60.72 80.035 62.6 77.675 62.6C74.875 62.6 74.875 60 74.875 56.52V55.68C74.875 55.4 74.995 55.2 75.315 55.2H76.555Z" fill="white"/>
<path d="M117.125 66.36C121.765 66.36 125.005 63.84 125.005 59.44C125.005 55.08 122.565 53.28 117.365 51C114.445 49.68 112.765 48.16 112.765 46.52C112.765 44.92 113.885 44.36 115.085 44.36C116.445 44.36 117.605 45.24 118.645 47.32C119.445 48.92 121.565 51.2 123.765 51.2C123.405 50.6 123.205 50.12 123.205 49.6C123.205 49.2 123.365 48.84 123.525 48.6C123.805 48.12 124.205 47.28 124.205 46.52C124.205 45.76 124.045 44.84 123.805 44.36C123.725 44.08 123.365 43.56 123.365 43.36C123.365 43.12 123.485 42.92 123.645 42.68C123.925 42.28 124.125 41.68 124.125 41.16C124.125 40.72 124.005 40.36 123.805 40.2C122.765 40.6 121.645 40.96 120.325 40.96C118.845 40.96 118.125 40.88 117.645 40.48C117.325 40.2 117.085 39.88 116.845 39.88C116.565 39.88 116.285 40.28 116.085 40.48C115.845 40.72 115.365 40.84 114.925 40.84C110.565 40.84 107.685 43.44 107.685 47.36C107.685 51.92 110.725 54.92 116.605 57.32C118.245 57.96 119.645 58.92 119.645 60.56C119.645 62.04 118.525 62.6 117.045 62.6C113.725 62.6 110.925 60.76 111.765 57.64C111.165 57.28 110.445 57.04 109.645 57.04C108.285 57.04 107.125 58.68 107.125 60.12C107.125 61.12 107.565 62.28 108.165 62.76C107.125 63.72 107.245 65.48 108.005 66C108.885 65.44 109.765 65.16 110.525 65.16C111.165 65.16 112.205 65.48 112.925 65.72C113.845 66.08 115.165 66.36 117.125 66.36ZM143.922 55.08C144.362 55.08 144.562 55.4 144.562 55.64C144.562 58.6 144.522 59.92 144.122 60.88C143.682 62 142.602 62.52 141.962 62.52C141.962 65.36 143.962 66 144.882 66C145.802 66 146.642 65.64 147.402 65.12C148.082 65.64 148.922 66 149.842 66C150.762 66 152.802 65.36 152.802 62.52C150.402 62.16 150.162 58.08 150.162 56.52V50.52C150.162 47.2 150.962 43.96 152.762 41.04C152.282 40.8 151.842 40.72 151.322 40.72C150.922 40.72 150.562 40.8 150.242 40.88C149.882 40.96 149.642 40.96 149.282 40.96C148.842 40.96 148.482 40.64 148.202 40.4C147.882 40.16 147.642 39.88 147.402 39.88C147.122 39.88 146.882 40.2 146.602 40.44C146.322 40.68 145.842 40.96 145.482 40.96C145.162 40.96 144.882 40.96 144.562 40.88C144.242 40.8 143.842 40.72 143.442 40.72C142.922 40.72 142.482 40.8 142.002 41.04C143.082 43.48 144.562 47.52 144.562 50.44C144.562 50.88 144.362 51.08 143.922 51.08H137.882C137.442 51.08 137.202 50.88 137.202 50.44C137.202 47.52 138.682 43.48 139.762 41.04C139.282 40.8 138.842 40.72 138.362 40.72C137.922 40.72 137.562 40.8 137.242 40.88C136.882 40.96 136.642 40.96 136.282 40.96C135.922 40.96 135.362 40.52 135.082 40.28C134.882 40.12 134.642 39.88 134.402 39.88C134.162 39.88 133.882 40.12 133.642 40.36C133.322 40.64 132.962 40.96 132.682 40.96C132.362 40.96 132.042 40.96 131.562 40.88C131.242 40.8 130.842 40.72 130.442 40.72C129.962 40.72 129.522 40.8 129.042 41.04C130.842 43.96 131.602 47.2 131.602 50.52V56.52C131.602 58.08 131.402 62.16 129.002 62.52C129.002 65.36 131.002 66 131.922 66C132.842 66 133.722 65.64 134.402 65.12C135.122 65.64 135.962 66 136.882 66C137.802 66 139.842 65.36 139.842 62.52C139.162 62.52 138.082 62 137.642 60.88C137.282 59.92 137.202 58.6 137.202 55.64C137.202 55.4 137.442 55.08 137.882 55.08H143.922ZM167.307 66.36C175.427 66.36 177.947 59.16 177.947 53.08C177.947 46.56 174.347 40.96 169.507 40.96C168.867 40.96 168.387 40.76 168.067 40.44C167.827 40.2 167.587 39.88 167.307 39.88C167.067 39.88 166.827 40.2 166.507 40.48C166.187 40.76 165.787 40.96 165.147 40.96C160.307 40.96 156.707 46.56 156.707 53.08C156.707 59.16 159.187 66.36 167.307 66.36ZM167.307 62.6C163.387 62.6 163.387 57.48 163.387 52.92C163.387 49.04 163.387 44.48 167.307 44.48C171.267 44.48 171.267 49.04 171.267 52.92C171.267 57.48 171.267 62.6 167.307 62.6ZM189.624 55.56C198.104 56.52 200.584 51.92 200.584 47.48C200.584 43.28 197.504 40.72 192.784 40.72C191.704 40.72 190.864 40.8 190.224 40.88C189.504 40.96 189.064 40.96 188.624 40.96C188.264 40.96 187.824 40.72 187.584 40.44C187.344 40.2 187.104 39.88 186.864 39.88C186.584 39.88 186.304 40.2 186.104 40.44C185.824 40.76 185.424 40.96 185.024 40.96C184.584 40.96 184.344 40.96 183.984 40.88C183.664 40.8 183.264 40.72 182.864 40.72C182.384 40.72 181.944 40.8 181.464 41.04C183.264 43.96 184.024 47.2 184.024 50.52V56.52C184.024 58.08 183.824 62.16 181.424 62.52C181.424 65.36 183.424 66 184.344 66C185.264 66 186.144 65.64 186.824 65.12C187.544 65.64 188.424 66 189.384 66C190.304 66 192.384 65.36 192.384 62.52C189.864 62.16 189.624 58.08 189.624 56.52V55.56ZM190.064 51.52C189.784 51.52 189.624 51.32 189.624 51.12V49.32C189.624 46.08 189.624 44.48 192.184 44.48C194.144 44.48 195.184 45.64 195.184 47.76C195.184 49.84 193.984 51.52 191.184 51.52H190.064Z" fill="#05050F"/>
</svg>
